<svg width="48" height="48" viewBox="0 0 48 48" fill="none" xmlns="http://www.w3.org/2000/svg">
<path fill-rule="evenodd" clip-rule="evenodd" d="M38.258 34.282V34.282C41.65 33.05 43.158 29.092 41.446 25.916L36.392 16.534C35.922 15.66 34.882 15.264 33.948 15.602L29.362 17.268C28.414 17.612 27.872 18.608 28.094 19.59L30.466 30.032C31.258 33.504 34.912 35.496 38.258 34.282Z" stroke="#ADADAD" stroke-width="1.5" stroke-linecap="round" stroke-linejoin="round"/>
<path d="M44 39.54L37.26 42" stroke="#ADADAD" stroke-width="1.5" stroke-linecap="round" stroke-linejoin="round"/>
<path d="M29.38 25.22H41.06" stroke="#ADADAD" stroke-width="1.5" stroke-linecap="round" stroke-linejoin="round"/>
<path d="M38.26 34.28L40.62 40.78" stroke="#ADADAD" stroke-width="1.5" stroke-linecap="round" stroke-linejoin="round"/>
<path fill-rule="evenodd" clip-rule="evenodd" d="M9.74198 34.282V34.282C6.34998 33.05 4.84198 29.092 6.55398 25.916L11.608 16.534C12.078 15.66 13.118 15.264 14.052 15.602L18.638 17.268C19.586 17.612 20.128 18.608 19.906 19.59L17.534 30.032C16.742 33.504 13.088 35.496 9.74198 34.282Z" stroke="#ADADAD" stroke-width="1.5" stroke-linecap="round" stroke-linejoin="round"/>
<path d="M4 39.54L10.74 42" stroke="#ADADAD" stroke-width="1.5" stroke-linecap="round" stroke-linejoin="round"/>
<path d="M18.62 25.22H6.92004" stroke="#ADADAD" stroke-width="1.5" stroke-linecap="round" stroke-linejoin="round"/>
<path d="M9.74 34.28L7.38 40.78" stroke="#ADADAD" stroke-width="1.5" stroke-linecap="round" stroke-linejoin="round"/>
<path d="M30 10L32 8" stroke="#ADADAD" stroke-width="1.5" stroke-linecap="round" stroke-linejoin="round"/>
<path d="M18 10L16 8" stroke="#ADADAD" stroke-width="1.5" stroke-linecap="round" stroke-linejoin="round"/>
<path d="M24 8V6" stroke="#ADADAD" stroke-width="1.5" stroke-linecap="round" stroke-linejoin="round"/>
</svg>
