<svg width="48" height="48" viewBox="0 0 48 48" fill="none" xmlns="http://www.w3.org/2000/svg">
<path fill-rule="evenodd" clip-rule="evenodd" d="M27.7446 33.1515L12.5855 40.731C11.0599 41.4938 9.21739 41.1948 8.01132 39.9888V39.9888C6.80526 38.7827 6.50626 36.9402 7.26904 35.4146L14.8486 20.2555C15.1361 19.6804 15.6825 19.2786 16.3172 19.1756C16.9518 19.0726 17.5972 19.281 18.0518 19.7356L28.2645 29.9483C28.7191 30.4029 28.9275 31.0483 28.8245 31.6829C28.7215 32.3176 28.3197 32.864 27.7446 33.1515Z" stroke="#ADADAD" stroke-width="1.5" stroke-linecap="round" stroke-linejoin="round"/>
<path d="M10 6V7" stroke="#ADADAD" stroke-width="1.5" stroke-linecap="round" stroke-linejoin="round"/>
<path d="M10 14V13" stroke="#ADADAD" stroke-width="1.5" stroke-linecap="round" stroke-linejoin="round"/>
<path d="M14 10H13" stroke="#ADADAD" stroke-width="1.5" stroke-linecap="round" stroke-linejoin="round"/>
<path d="M6 10H7" stroke="#ADADAD" stroke-width="1.5" stroke-linecap="round" stroke-linejoin="round"/>
<path d="M24 6C25.0128 6.50644 25.7594 7.42339 26.0501 8.51783C26.3407 9.61228 26.1474 10.7788 25.5193 11.721L24 14" stroke="#ADADAD" stroke-width="1.5" stroke-linecap="round" stroke-linejoin="round"/>
<path d="M34 24L36.279 22.4807C37.2212 21.8526 38.3877 21.6593 39.4822 21.9499C40.5766 22.2406 41.4936 22.9872 42 24" stroke="#ADADAD" stroke-width="1.5" stroke-linecap="round" stroke-linejoin="round"/>
<path d="M38 34V35" stroke="#ADADAD" stroke-width="1.5" stroke-linecap="round" stroke-linejoin="round"/>
<path d="M38 42V41" stroke="#ADADAD" stroke-width="1.5" stroke-linecap="round" stroke-linejoin="round"/>
<path d="M42 38H41" stroke="#ADADAD" stroke-width="1.5" stroke-linecap="round" stroke-linejoin="round"/>
<path d="M34 38H35" stroke="#ADADAD" stroke-width="1.5" stroke-linecap="round" stroke-linejoin="round"/>
<path d="M38 6V7" stroke="#ADADAD" stroke-width="1.5" stroke-linecap="round" stroke-linejoin="round"/>
<path d="M38 14V13" stroke="#ADADAD" stroke-width="1.5" stroke-linecap="round" stroke-linejoin="round"/>
<path d="M42 10H41" stroke="#ADADAD" stroke-width="1.5" stroke-linecap="round" stroke-linejoin="round"/>
<path d="M34 10H35" stroke="#ADADAD" stroke-width="1.5" stroke-linecap="round" stroke-linejoin="round"/>
<path d="M28 20L30 18" stroke="#ADADAD" stroke-width="1.5" stroke-linecap="round" stroke-linejoin="round"/>
</svg>
