<svg width="278" height="174" viewBox="0 0 278 174" fill="none" xmlns="http://www.w3.org/2000/svg">
<path d="M66.8574 67.238C65.0014 67.238 63.4548 66.832 62.2174 66.02C60.9801 65.208 60.0714 64.2413 59.4914 63.12C58.9114 62.0373 58.6214 61.09 58.6214 60.278C58.6214 59.35 58.9888 58.4993 59.7234 57.726C60.4581 56.9527 61.2894 56.4113 62.2174 56.102L62.7394 55.986C62.8554 55.986 62.9328 56.0247 62.9714 56.102C63.0101 56.218 63.0294 56.3727 63.0294 56.566C63.2614 58.7313 63.7448 60.51 64.4794 61.902C65.2141 63.3327 66.6448 64.048 68.7714 64.048C70.2021 64.048 71.4008 63.6227 72.3674 62.772C73.3341 61.9213 74.1461 60.5293 74.8034 58.596C75.4608 56.7013 76.0601 54.0913 76.6014 50.766L81.5894 19.098H81.2994C80.5261 19.098 79.5014 18.9627 78.2254 18.692C76.2921 18.344 74.8034 18.17 73.7594 18.17C71.9421 18.17 70.5888 18.4213 69.6994 18.924C68.8101 19.388 67.9594 20.0453 67.1474 20.896C66.9154 21.1667 66.7028 21.3793 66.5094 21.534C66.3548 21.6887 66.2001 21.766 66.0454 21.766C65.7748 21.766 65.6394 21.6307 65.6394 21.36L65.6974 20.722C66.0454 18.6727 66.9928 17.1647 68.5394 16.198C70.1248 15.2313 72.3674 14.748 75.2674 14.748C76.5048 14.748 77.8001 14.8447 79.1534 15.038C79.4241 15.0767 79.9654 15.1347 80.7774 15.212C81.6281 15.2893 82.4981 15.328 83.3874 15.328C84.1994 15.328 84.8374 15.2893 85.3014 15.212C85.8041 15.1347 86.3648 14.98 86.9834 14.748C86.4034 16.4107 86.0168 17.822 85.8234 18.982C85.6688 20.1033 85.5721 20.838 85.5334 21.186L81.5314 47.228C80.5261 53.6853 78.7474 58.6347 76.1954 62.076C73.6434 65.5173 70.5308 67.238 66.8574 67.238ZM112.445 55.58C110.627 55.58 109.506 54.2653 109.081 51.636C108.733 49.5093 108.559 45.7007 108.559 40.21L107.109 41.312H100.033C99.1432 43.5933 98.0992 45.6427 96.9005 47.46C95.7405 49.2773 94.5032 50.6307 93.1885 51.52V51.636C93.6912 51.868 94.1745 51.984 94.6385 51.984C95.2185 51.984 95.7599 51.8873 96.2625 51.694C96.8039 51.5007 97.1325 51.404 97.2485 51.404C97.5192 51.404 97.6545 51.5007 97.6545 51.694C97.6545 51.9647 97.3839 52.4287 96.8425 53.086C96.2239 53.7047 95.5665 54.188 94.8705 54.536C94.1745 54.8453 93.5172 55 92.8985 55C92.3959 55 91.6805 54.8453 90.7525 54.536C89.8245 54.2267 89.1285 54.072 88.6645 54.072C88.0845 54.072 87.5045 54.2267 86.9245 54.536C86.3059 54.8453 85.8999 55 85.7065 55C85.5132 55 85.4165 54.9033 85.4165 54.71C85.4165 54.3233 85.5712 53.8787 85.8805 53.376C86.1899 52.8347 86.5572 52.4673 86.9825 52.274C87.2145 52.158 87.4465 52.0807 87.6785 52.042C87.8719 52.0033 88.1232 51.926 88.4325 51.81C89.9405 51.23 91.2552 50.186 92.3765 48.678C93.5365 47.1313 94.5225 45.4107 95.3345 43.516C96.1465 41.5827 97.0745 39.1273 98.1185 36.15C99.3172 32.786 100.342 30.06 101.193 27.972C102.082 25.8453 103.126 23.8927 104.325 22.114C105.523 20.2967 106.896 18.8853 108.443 17.88V17.822C107.901 17.7447 107.495 17.6673 107.225 17.59C107.07 17.5513 106.587 17.474 105.775 17.358C105.001 17.242 103.996 17.184 102.759 17.184C100.671 17.184 98.9112 17.5707 97.4805 18.344C96.0885 19.1173 94.7739 20.374 93.5365 22.114C93.1499 22.7327 92.8405 23.042 92.6085 23.042C92.3765 23.042 92.2605 22.8873 92.2605 22.578L92.3185 21.998C92.8985 19.6393 94.2132 17.7447 96.2625 16.314C98.3505 14.8833 100.767 14.168 103.513 14.168C104.634 14.168 106.316 14.3613 108.559 14.748C110.647 15.1347 112.135 15.328 113.025 15.328C114.03 15.328 115.093 15.1347 116.215 14.748V14.806C115.171 16.546 114.359 19.272 113.779 22.984C113.199 26.6573 112.909 31.22 112.909 36.672C112.909 42.2787 113.025 46.068 113.257 48.04C113.334 49.1613 113.489 50.012 113.721 50.592C113.991 51.1333 114.436 51.404 115.055 51.404C115.441 51.404 115.809 51.3073 116.157 51.114C116.543 50.9207 117.046 50.6307 117.665 50.244C118.399 49.7413 118.863 49.49 119.057 49.49C119.289 49.49 119.405 49.5673 119.405 49.722C119.405 50.0313 119.289 50.3987 119.057 50.824C118.322 52.1387 117.317 53.26 116.041 54.188C114.803 55.116 113.605 55.58 112.445 55.58ZM108.617 37.832C108.694 34.2747 108.945 30.756 109.371 27.276C109.796 23.7573 110.337 20.896 110.995 18.692H110.937C109.429 19.388 107.959 21.07 106.529 23.738C105.137 26.406 103.532 30.4467 101.715 35.86L101.077 37.832H108.617ZM133.184 55.58C132.913 55.58 132.72 55.4833 132.604 55.29C132.527 55.0967 132.449 54.6713 132.372 54.014C131.985 46.7833 131.502 40.5 130.922 35.164C130.342 29.7893 129.511 25.4007 128.428 21.998C128.157 20.9927 127.848 20.258 127.5 19.794C127.152 19.33 126.649 19.098 125.992 19.098C124.291 19.098 122.879 20.7607 121.758 24.086C121.487 24.898 121.197 25.304 120.888 25.304C120.617 25.304 120.482 24.9753 120.482 24.318C120.482 22.81 120.83 21.2633 121.526 19.678C122.261 18.0927 123.227 16.778 124.426 15.734C125.625 14.69 126.92 14.168 128.312 14.168C129.163 14.168 129.975 14.5353 130.748 15.27C131.521 15.966 132.237 17.416 132.894 19.62C133.706 22.3267 134.46 26.464 135.156 32.032C135.891 37.5613 136.393 43.1293 136.664 48.736C143.972 37.1747 147.626 28.5713 147.626 22.926C147.626 21.9593 147.51 21.2247 147.278 20.722C147.085 20.2193 146.737 19.678 146.234 19.098C146.118 18.982 146.331 18.4987 146.872 17.648C147.413 16.7973 148.032 16.0047 148.728 15.27C149.463 14.5353 150.043 14.168 150.468 14.168C150.932 14.168 151.396 14.6513 151.86 15.618C152.324 16.5847 152.556 17.7253 152.556 19.04C152.556 20.8573 152.092 23.3127 151.164 26.406C150.236 29.4607 148.825 32.612 146.93 35.86L138.462 50.534C138.423 50.65 138.172 51.0947 137.708 51.868C137.283 52.6413 136.896 53.26 136.548 53.724C136.161 54.188 135.639 54.6133 134.982 55C134.325 55.3867 133.725 55.58 133.184 55.58ZM165.148 55.58C161.243 55.58 158.575 54.0913 157.144 51.114C155.752 48.1367 155.056 44.966 155.056 41.602C155.056 37.658 155.907 33.54 157.608 29.248C159.348 24.956 161.707 21.3793 164.684 18.518C167.661 15.618 170.967 14.168 174.602 14.168C178.159 14.168 180.711 15.5407 182.258 18.286C183.843 21.0313 184.636 24.4533 184.636 28.552C184.636 33.2307 183.708 37.658 181.852 41.834C180.035 45.9713 177.618 49.2967 174.602 51.81C171.625 54.3233 168.473 55.58 165.148 55.58ZM167.526 52.332C169.962 52.332 172.089 51.2493 173.906 49.084C175.762 46.9187 177.173 44.154 178.14 40.79C179.145 37.3873 179.648 33.9267 179.648 30.408C179.648 26.58 179.049 23.448 177.85 21.012C176.69 18.576 174.95 17.358 172.63 17.358C170.581 17.358 168.57 18.3247 166.598 20.258C164.626 22.1527 163.021 24.782 161.784 28.146C160.547 31.51 159.928 35.2607 159.928 39.398C159.928 43.574 160.585 46.7833 161.9 49.026C163.253 51.23 165.129 52.332 167.526 52.332ZM187.523 55.58C186.479 55.58 185.628 55.3673 184.971 54.942C184.313 54.478 183.985 54.014 183.985 53.55C183.985 53.2407 184.255 52.738 184.797 52.042C185.338 51.346 185.899 50.708 186.479 50.128C187.097 49.548 187.445 49.2967 187.523 49.374C187.987 49.7607 188.354 50.0507 188.625 50.244C188.934 50.4373 189.321 50.534 189.785 50.534C191.679 50.534 193.477 49.258 195.179 46.706C196.919 44.154 198.775 40.8093 200.747 36.672L201.211 35.57L198.369 23.796C197.905 22.056 197.479 20.838 197.093 20.142C196.745 19.446 196.3 19.098 195.759 19.098C195.063 19.098 194.405 19.5427 193.787 20.432C193.207 21.2827 192.627 22.3267 192.047 23.564C191.931 23.8347 191.795 24.0667 191.641 24.26C191.525 24.4533 191.389 24.55 191.235 24.55C190.964 24.55 190.829 24.2987 190.829 23.796C190.829 22.752 191.157 21.4567 191.815 19.91C192.511 18.3633 193.4 17.0293 194.483 15.908C195.565 14.748 196.667 14.168 197.789 14.168C199.413 14.168 200.611 15.618 201.385 18.518L204.459 30.408L207.011 25.884C209.099 21.9787 211.071 19.0593 212.927 17.126C214.821 15.154 216.677 14.168 218.495 14.168C219.384 14.168 220.177 14.342 220.873 14.69C221.569 14.9993 221.917 15.3473 221.917 15.734C221.917 16.0433 221.665 16.5653 221.163 17.3C220.699 18.0347 220.196 18.7307 219.655 19.388C219.113 20.0453 218.804 20.3353 218.727 20.258C218.301 19.8713 217.934 19.6007 217.625 19.446C217.354 19.2527 216.967 19.156 216.465 19.156C215.73 19.156 215.034 19.388 214.377 19.852C213.719 20.2773 213.004 20.9733 212.231 21.94C210.413 24.26 208.19 28.204 205.561 33.772L208.925 46.3C209.389 47.9627 209.833 49.1227 210.259 49.78C210.723 50.3987 211.264 50.708 211.883 50.708C212.656 50.708 213.333 50.3213 213.913 49.548C214.493 48.736 215.034 47.7693 215.537 46.648C215.846 45.9907 216.136 45.662 216.407 45.662C216.639 45.662 216.755 45.894 216.755 46.358C216.755 47.286 216.426 48.504 215.769 50.012C215.111 51.4813 214.261 52.7767 213.217 53.898C212.173 55.0193 211.071 55.58 209.911 55.58C208.673 55.58 207.61 54.768 206.721 53.144C205.87 51.4813 204.903 48.678 203.821 44.734L202.313 38.934L201.965 39.746C199.799 44.8113 197.441 48.7167 194.889 51.462C192.337 54.2073 189.881 55.58 187.523 55.58ZM223.622 55C223.39 55 223.274 54.8647 223.274 54.594C223.274 54.13 223.487 53.55 223.912 52.854C224.376 52.158 224.917 51.694 225.536 51.462L227.16 50.766C227.701 50.4953 228.069 50.012 228.262 49.316C228.494 48.5813 228.726 47.344 228.958 45.604L232.844 18.112C232.071 18.112 231.336 18.1313 230.64 18.17C229.828 18.2473 229.093 18.3633 228.436 18.518C227.779 18.6727 227.373 18.75 227.218 18.75C226.986 18.75 226.87 18.634 226.87 18.402C226.87 18.0927 227.044 17.6867 227.392 17.184C227.856 16.4493 228.397 15.908 229.016 15.56C229.635 15.1733 230.389 14.9607 231.278 14.922L239.456 14.748C240.5 14.7093 241.273 14.6127 241.776 14.458C242.317 14.3033 242.665 14.226 242.82 14.226C243.091 14.226 243.226 14.342 243.226 14.574C243.226 14.8833 243.071 15.27 242.762 15.734C242.337 16.4687 241.969 16.9713 241.66 17.242C241.351 17.5127 240.809 17.6867 240.036 17.764L237.194 17.938L232.786 48.794C232.554 49.838 232.187 50.6113 231.684 51.114V51.172C232.071 51.2493 232.573 51.3653 233.192 51.52C233.849 51.636 234.429 51.694 234.932 51.694C235.551 51.694 236.073 51.578 236.498 51.346C236.962 51.114 237.233 50.998 237.31 50.998C237.503 50.998 237.6 51.114 237.6 51.346C237.6 51.7327 237.368 52.1773 236.904 52.68C235.512 54.2267 234.159 55 232.844 55C232.38 55 231.665 54.8647 230.698 54.594C229.229 54.246 228.223 54.072 227.682 54.072C226.947 54.072 226.116 54.2267 225.188 54.536C224.299 54.8453 223.777 55 223.622 55ZM271.403 55.58C270.398 55.58 269.508 55.232 268.735 54.536C268 53.8013 267.362 52.68 266.821 51.172L263.341 41.776C262.916 40.5773 262.471 39.688 262.007 39.108C261.582 38.528 260.944 38.1027 260.093 37.832C259.281 37.5227 258.102 37.368 256.555 37.368L254.699 48.62C254.506 49.6253 254.138 50.4373 253.597 51.056V51.114C253.79 51.1913 254.08 51.3073 254.467 51.462C254.892 51.578 255.279 51.636 255.627 51.636C256.13 51.636 256.613 51.5393 257.077 51.346C257.541 51.114 257.85 50.998 258.005 50.998C258.237 50.998 258.353 51.114 258.353 51.346C258.353 51.694 258.121 52.1193 257.657 52.622C256.188 54.2073 255.008 55 254.119 55C253.81 55 253.152 54.8453 252.147 54.536C251.026 54.188 250.252 54.014 249.827 54.014C249.208 54.014 248.57 54.188 247.913 54.536C247.294 54.8453 246.946 55 246.869 55C246.676 55 246.579 54.8067 246.579 54.42C246.579 53.9947 246.676 53.608 246.869 53.26C247.062 52.912 247.391 52.506 247.855 52.042C248.744 51.23 249.324 50.65 249.595 50.302C249.866 49.9153 250.078 49.4127 250.233 48.794C250.388 48.1753 250.62 46.9187 250.929 45.024L254.467 24.376C254.622 23.4093 255.279 22.4427 256.439 21.476C257.638 20.5093 258.701 20.026 259.629 20.026C260.016 20.026 260.209 20.1227 260.209 20.316C260.209 20.432 260.016 20.7607 259.629 21.302C259.281 21.8047 259.01 22.7133 258.817 24.028L257.193 34.526C257.696 34.642 258.604 34.7 259.919 34.7C262.664 34.7 264.81 33.8687 266.357 32.206C267.942 30.5047 268.735 28.2233 268.735 25.362C268.735 19.9873 265.777 17.3 259.861 17.3C255.144 17.3 251.258 19.0013 248.203 22.404C247.894 22.752 247.623 23.042 247.391 23.274C247.159 23.506 246.927 23.622 246.695 23.622C246.463 23.622 246.347 23.4867 246.347 23.216C246.347 22.984 246.366 22.7713 246.405 22.578C246.753 21.2247 247.623 19.91 249.015 18.634C250.407 17.3193 252.205 16.256 254.409 15.444C256.613 14.5933 259.049 14.168 261.717 14.168C265.313 14.168 268.116 14.98 270.127 16.604C272.176 18.228 273.201 20.5287 273.201 23.506C273.201 26.4833 272.234 29.1127 270.301 31.394C268.406 33.6753 265.97 35.2607 262.993 36.15C265.081 36.8073 266.589 38.3347 267.517 40.732L270.417 48.62C270.804 49.5867 271.19 50.302 271.577 50.766C272.002 51.1913 272.544 51.404 273.201 51.404C274.129 51.404 275.038 50.9013 275.927 49.896C276.082 49.7027 276.236 49.49 276.391 49.258C276.584 49.026 276.758 48.91 276.913 48.91C277.222 48.91 277.377 49.1613 277.377 49.664C277.377 50.592 277.068 51.52 276.449 52.448C275.869 53.376 275.115 54.13 274.187 54.71C273.259 55.29 272.331 55.58 271.403 55.58Z" fill="black"/>
<path d="M116.828 97.28C116.697 97.28 116.604 97.2333 116.548 97.14C116.51 97.0467 116.473 96.8413 116.436 96.524C116.249 93.0333 116.016 90 115.736 87.424C115.456 84.8293 115.054 82.7107 114.532 81.068C114.401 80.5827 114.252 80.228 114.084 80.004C113.916 79.78 113.673 79.668 113.356 79.668C112.534 79.668 111.853 80.4707 111.312 82.076C111.181 82.468 111.041 82.664 110.892 82.664C110.761 82.664 110.696 82.5053 110.696 82.188C110.696 81.46 110.864 80.7133 111.2 79.948C111.554 79.1827 112.021 78.548 112.6 78.044C113.178 77.54 113.804 77.288 114.476 77.288C114.886 77.288 115.278 77.4653 115.652 77.82C116.025 78.156 116.37 78.856 116.688 79.92C117.08 81.2267 117.444 83.224 117.78 85.912C118.134 88.5813 118.377 91.2693 118.508 93.976C122.036 88.3947 123.8 84.2413 123.8 81.516C123.8 81.0493 123.744 80.6947 123.632 80.452C123.538 80.2093 123.37 79.948 123.128 79.668C123.072 79.612 123.174 79.3787 123.436 78.968C123.697 78.5573 123.996 78.1747 124.332 77.82C124.686 77.4653 124.966 77.288 125.172 77.288C125.396 77.288 125.62 77.5213 125.844 77.988C126.068 78.4547 126.18 79.0053 126.18 79.64C126.18 80.5173 125.956 81.7027 125.508 83.196C125.06 84.6707 124.378 86.192 123.464 87.76L119.376 94.844C119.357 94.9 119.236 95.1147 119.012 95.488C118.806 95.8613 118.62 96.16 118.452 96.384C118.265 96.608 118.013 96.8133 117.696 97C117.378 97.1867 117.089 97.28 116.828 97.28ZM137.796 97.28C136.918 97.28 136.377 96.6453 136.172 95.376C136.004 94.3493 135.92 92.5107 135.92 89.86L135.22 90.392H131.804C131.374 91.4933 130.87 92.4827 130.292 93.36C129.732 94.2373 129.134 94.8907 128.5 95.32V95.376C128.742 95.488 128.976 95.544 129.2 95.544C129.48 95.544 129.741 95.4973 129.984 95.404C130.245 95.3107 130.404 95.264 130.46 95.264C130.59 95.264 130.656 95.3107 130.656 95.404C130.656 95.5347 130.525 95.7587 130.264 96.076C129.965 96.3747 129.648 96.608 129.312 96.776C128.976 96.9253 128.658 97 128.36 97C128.117 97 127.772 96.9253 127.324 96.776C126.876 96.6267 126.54 96.552 126.316 96.552C126.036 96.552 125.756 96.6267 125.476 96.776C125.177 96.9253 124.981 97 124.888 97C124.794 97 124.748 96.9533 124.748 96.86C124.748 96.6733 124.822 96.4587 124.972 96.216C125.121 95.9547 125.298 95.7773 125.504 95.684C125.616 95.628 125.728 95.5907 125.84 95.572C125.933 95.5533 126.054 95.516 126.204 95.46C126.932 95.18 127.566 94.676 128.108 93.948C128.668 93.2013 129.144 92.3707 129.536 91.456C129.928 90.5227 130.376 89.3373 130.88 87.9C131.458 86.276 131.953 84.96 132.364 83.952C132.793 82.9253 133.297 81.9827 133.876 81.124C134.454 80.2467 135.117 79.5653 135.864 79.08V79.052C135.602 79.0147 135.406 78.9773 135.276 78.94C135.201 78.9213 134.968 78.884 134.576 78.828C134.202 78.772 133.717 78.744 133.12 78.744C132.112 78.744 131.262 78.9307 130.572 79.304C129.9 79.6773 129.265 80.284 128.668 81.124C128.481 81.4227 128.332 81.572 128.22 81.572C128.108 81.572 128.052 81.4973 128.052 81.348L128.08 81.068C128.36 79.9293 128.994 79.0147 129.984 78.324C130.992 77.6333 132.158 77.288 133.484 77.288C134.025 77.288 134.837 77.3813 135.92 77.568C136.928 77.7547 137.646 77.848 138.076 77.848C138.561 77.848 139.074 77.7547 139.616 77.568V77.596C139.112 78.436 138.72 79.752 138.44 81.544C138.16 83.3173 138.02 85.52 138.02 88.152C138.02 90.8587 138.076 92.688 138.188 93.64C138.225 94.1813 138.3 94.592 138.412 94.872C138.542 95.1333 138.757 95.264 139.056 95.264C139.242 95.264 139.42 95.2173 139.588 95.124C139.774 95.0307 140.017 94.8907 140.316 94.704C140.67 94.4613 140.894 94.34 140.988 94.34C141.1 94.34 141.156 94.3773 141.156 94.452C141.156 94.6013 141.1 94.7787 140.988 94.984C140.633 95.6187 140.148 96.16 139.532 96.608C138.934 97.056 138.356 97.28 137.796 97.28ZM135.948 88.712C135.985 86.9947 136.106 85.296 136.312 83.616C136.517 81.9173 136.778 80.536 137.096 79.472H137.068C136.34 79.808 135.63 80.62 134.94 81.908C134.268 83.196 133.493 85.1467 132.616 87.76L132.308 88.712H135.948Z" fill="black"/>
<path d="M2.52627 159C2.29427 159 2.17827 158.826 2.17827 158.478C2.17827 158.091 2.29427 157.666 2.52627 157.202C2.75827 156.738 3.04827 156.351 3.39627 156.042C4.36293 155.269 5.00093 154.708 5.31027 154.36C5.65827 153.973 5.92893 153.529 6.12227 153.026C6.3156 152.523 6.5476 151.634 6.81827 150.358L12.7923 122.46H12.3863C12.1543 122.46 11.6516 122.421 10.8783 122.344C9.48627 122.228 8.73227 122.17 8.61627 122.17C6.45093 122.17 4.8076 122.885 3.68627 124.316C3.60893 124.432 3.4736 124.645 3.28027 124.954C3.08693 125.225 2.91293 125.36 2.75827 125.36C2.56493 125.36 2.46827 125.186 2.46827 124.838C2.46827 124.451 2.52627 124.123 2.64227 123.852C3.02893 122.228 3.86027 120.971 5.13627 120.082C6.41227 119.193 7.97827 118.748 9.83427 118.748L11.7483 118.806C12.8309 118.883 13.7009 118.922 14.3583 118.922C14.9769 118.922 15.6729 118.883 16.4463 118.806L17.9543 118.748C17.7996 119.251 17.7223 119.985 17.7223 120.952C17.7223 122.228 17.8963 123.852 18.2443 125.824C18.6309 127.757 19.2109 130.425 19.9843 133.828L21.7823 142.238C21.8596 142.586 22.1109 143.997 22.5363 146.472C24.1603 143.263 26.3063 139.009 28.9743 133.712C31.6809 128.376 33.8849 124.045 35.5863 120.72C37.0556 117.936 38.4089 115.751 39.6463 114.166C40.9223 112.542 42.2369 111.266 43.5903 110.338C44.7116 109.603 45.8523 109.081 47.0123 108.772C48.1723 108.424 49.6029 108.192 51.3043 108.076C52.6189 107.999 53.4696 107.883 53.8563 107.728C53.9336 107.689 54.0109 107.651 54.0883 107.612C54.2043 107.535 54.3009 107.496 54.3783 107.496C54.5716 107.496 54.6683 107.651 54.6683 107.96C54.6683 109.275 53.4696 110.125 51.0723 110.512C50.9176 110.551 50.4343 110.628 49.6223 110.744C48.8103 110.86 47.9983 111.073 47.1863 111.382C46.4129 111.653 45.7363 112.02 45.1563 112.484C43.8803 113.489 42.7783 115.152 41.8503 117.472C40.9223 119.753 40.1683 123.001 39.5883 127.216C39.3176 128.917 38.9889 131.972 38.6023 136.38C38.1383 142.18 37.5003 147.593 36.6883 152.62C36.5723 153.548 36.2049 154.36 35.5863 155.056V155.114C36.5529 155.462 37.3649 155.636 38.0223 155.636C38.5636 155.636 39.1243 155.539 39.7043 155.346C40.2843 155.114 40.6323 154.998 40.7483 154.998C40.9416 154.998 41.0383 155.114 41.0383 155.346C41.0383 155.655 40.7869 156.081 40.2843 156.622C38.9309 158.207 37.7709 159 36.8043 159C36.4949 159 35.7603 158.845 34.6003 158.536C33.2083 158.188 32.2996 158.014 31.8743 158.014C31.1783 158.014 30.4436 158.188 29.6703 158.536C28.9356 158.845 28.5296 159 28.4523 159C28.2203 159 28.1043 158.826 28.1043 158.478C28.1043 158.13 28.2203 157.743 28.4523 157.318C28.6843 156.854 29.0323 156.429 29.4963 156.042C30.6176 155.23 31.3329 154.611 31.6423 154.186C31.9903 153.761 32.2223 153.181 32.3383 152.446L32.6283 149.836C33.0536 145.969 33.4596 142.219 33.8463 138.584C34.2716 134.949 34.6583 131.547 35.0063 128.376H34.8903C28.9356 138.932 25.1076 146.511 23.4063 151.112C22.8263 152.349 22.1496 153.567 21.3763 154.766C20.6029 155.965 20.0423 156.564 19.6943 156.564C19.3849 156.564 19.2303 156.371 19.2303 155.984C19.1143 153.625 18.9209 151.595 18.6503 149.894C18.4183 148.154 17.9156 145.409 17.1423 141.658C16.5236 138.565 16.2143 137.018 16.2143 137.018C15.4796 133.77 14.9576 131.179 14.6483 129.246H14.5903L9.71827 152.62C9.60227 153.587 9.25427 154.399 8.67427 155.056V155.114C9.71827 155.462 10.4916 155.636 10.9943 155.636C11.4583 155.636 11.9029 155.539 12.3283 155.346C12.7536 155.114 13.0243 154.998 13.1403 154.998C13.3336 154.998 13.4303 155.114 13.4303 155.346C13.4303 155.694 13.1789 156.119 12.6763 156.622C11.2069 158.207 10.0469 159 9.19627 159C8.84827 159 8.2876 158.845 7.51427 158.536C7.39827 158.497 7.10827 158.401 6.64427 158.246C6.21893 158.091 5.7936 158.014 5.36827 158.014C4.7496 158.014 4.15027 158.188 3.57027 158.536C2.99027 158.845 2.64227 159 2.52627 159ZM59.8815 159.58C56.9428 159.58 54.7195 158.71 53.2115 156.97C51.7035 155.191 50.9495 152.678 50.9495 149.43C50.9495 148.077 51.1041 146.472 51.4135 144.616L55.4155 122.46C55.2221 122.46 54.7388 122.421 53.9655 122.344C52.5735 122.228 51.8195 122.17 51.7035 122.17C49.4995 122.17 47.8948 122.885 46.8895 124.316C46.8121 124.432 46.6768 124.645 46.4835 124.954C46.2901 125.225 46.1161 125.36 45.9615 125.36C45.7681 125.36 45.6715 125.186 45.6715 124.838C45.6715 124.761 45.7295 124.432 45.8455 123.852C46.1548 122.228 46.9475 120.971 48.2235 120.082C49.4995 119.193 51.0848 118.748 52.9795 118.748L54.8935 118.806C55.9761 118.883 56.8461 118.922 57.5035 118.922C58.1995 118.922 58.9341 118.883 59.7075 118.806L61.0995 118.748C60.4035 119.792 59.5721 123.098 58.6055 128.666L55.8215 144.674C55.4735 146.569 55.2995 148.328 55.2995 149.952C55.2995 154.747 57.1748 157.144 60.9255 157.144C66.7255 157.144 70.4955 151.75 72.2355 140.962L75.1935 122.402C75.3481 121.474 76.0055 120.546 77.1655 119.618C78.3255 118.651 79.4081 118.168 80.4135 118.168C80.9161 118.168 81.1675 118.265 81.1675 118.458C81.1675 118.535 80.9741 118.883 80.5875 119.502C80.2008 120.082 79.9108 120.991 79.7175 122.228L76.5275 141.658C75.9475 145.215 74.8648 148.347 73.2795 151.054C71.6941 153.761 69.7415 155.868 67.4215 157.376C65.1015 158.845 62.5881 159.58 59.8815 159.58ZM107.637 159.58C107.173 159.58 106.941 159.348 106.941 158.884C106.941 158.807 107.018 158.381 107.173 157.608C107.482 155.868 107.637 154.611 107.637 153.838C107.637 152.987 107.463 152.079 107.115 151.112C106.457 149.101 105.278 146.627 103.577 143.688L101.315 139.512C99.7681 136.651 98.3374 133.731 97.0228 130.754L96.5008 129.536H96.3848L92.7308 152.62C92.6148 153.664 92.3054 154.476 91.8028 155.056V155.114C92.8468 155.462 93.6201 155.636 94.1228 155.636C94.6641 155.636 95.1474 155.539 95.5728 155.346C95.9981 155.114 96.2688 154.998 96.3848 154.998C96.5781 154.998 96.6748 155.114 96.6748 155.346C96.6748 155.694 96.4234 156.119 95.9208 156.622C94.4514 158.207 93.2528 159 92.3248 159C91.9768 159 91.4161 158.845 90.6428 158.536C90.5268 158.497 90.2368 158.401 89.7728 158.246C89.3474 158.091 88.9221 158.014 88.4968 158.014C87.8781 158.014 87.2594 158.188 86.6408 158.536C86.0221 158.845 85.6548 159 85.5388 159C85.3454 159 85.2488 158.826 85.2488 158.478C85.2488 158.091 85.3648 157.666 85.5968 157.202C85.8674 156.738 86.1961 156.351 86.5828 156.042C87.4721 155.269 88.0714 154.708 88.3808 154.36C88.6901 154.012 88.9221 153.587 89.0768 153.084C89.2701 152.543 89.4634 151.615 89.6568 150.3L94.0648 122.46L92.2088 122.344C91.3968 122.228 90.5848 122.17 89.7728 122.17C88.6514 122.17 87.7041 122.344 86.9308 122.692C86.1574 123.04 85.5001 123.581 84.9588 124.316C84.8814 124.432 84.7461 124.645 84.5528 124.954C84.3594 125.225 84.1854 125.36 84.0308 125.36C83.8374 125.36 83.7408 125.186 83.7408 124.838C83.7408 124.451 83.7988 124.123 83.9148 123.852C84.3014 122.228 85.1328 120.971 86.4088 120.082C87.6848 119.193 89.2508 118.748 91.1068 118.748L93.0208 118.806C94.0261 118.883 94.8768 118.922 95.5728 118.922C96.2688 118.922 97.0034 118.883 97.7768 118.806L98.9948 118.748C98.8014 119.715 98.7048 120.527 98.7048 121.184C98.7048 122.808 99.0914 124.703 99.8648 126.868C100.677 129.033 101.914 131.663 103.577 134.756L106.825 140.904C108.178 143.34 109.183 145.37 109.841 146.994H109.957L113.147 125.708C113.727 121.957 114.558 118.864 115.641 116.428C116.762 113.992 118.173 112.097 119.875 110.744C121.112 109.7 122.407 108.946 123.761 108.482C125.153 107.979 126.989 107.631 129.271 107.438C129.657 107.399 130.218 107.303 130.953 107.148C131.301 106.993 131.533 106.916 131.649 106.916C131.842 106.916 131.939 107.032 131.939 107.264C131.939 107.728 131.668 108.25 131.127 108.83C130.585 109.41 129.657 109.777 128.343 109.932C128.111 109.971 127.511 110.048 126.545 110.164C125.617 110.241 124.747 110.473 123.935 110.86C123.161 111.247 122.427 111.807 121.731 112.542C120.493 113.895 119.507 115.597 118.773 117.646C118.038 119.695 117.439 122.112 116.975 124.896L112.451 152.678C112.335 153.529 111.967 154.495 111.349 155.578C110.769 156.661 110.111 157.608 109.377 158.42C108.681 159.193 108.101 159.58 107.637 159.58ZM122.158 159C121.926 159 121.81 158.865 121.81 158.594C121.81 158.13 122.023 157.55 122.448 156.854C122.912 156.158 123.453 155.694 124.072 155.462L125.696 154.766C126.237 154.495 126.605 154.012 126.798 153.316C127.03 152.581 127.262 151.344 127.494 149.604L131.38 122.112C130.607 122.112 129.872 122.131 129.176 122.17C128.364 122.247 127.629 122.363 126.972 122.518C126.315 122.673 125.909 122.75 125.754 122.75C125.522 122.75 125.406 122.634 125.406 122.402C125.406 122.093 125.58 121.687 125.928 121.184C126.392 120.449 126.933 119.908 127.552 119.56C128.171 119.173 128.925 118.961 129.814 118.922L137.992 118.748C139.036 118.709 139.809 118.613 140.312 118.458C140.853 118.303 141.201 118.226 141.356 118.226C141.627 118.226 141.762 118.342 141.762 118.574C141.762 118.883 141.607 119.27 141.298 119.734C140.873 120.469 140.505 120.971 140.196 121.242C139.887 121.513 139.345 121.687 138.572 121.764L135.73 121.938L131.322 152.794C131.09 153.838 130.723 154.611 130.22 155.114V155.172C130.607 155.249 131.109 155.365 131.728 155.52C132.385 155.636 132.965 155.694 133.468 155.694C134.087 155.694 134.609 155.578 135.034 155.346C135.498 155.114 135.769 154.998 135.846 154.998C136.039 154.998 136.136 155.114 136.136 155.346C136.136 155.733 135.904 156.177 135.44 156.68C134.048 158.227 132.695 159 131.38 159C130.916 159 130.201 158.865 129.234 158.594C127.765 158.246 126.759 158.072 126.218 158.072C125.483 158.072 124.652 158.227 123.724 158.536C122.835 158.845 122.313 159 122.158 159ZM150.122 159.58C148.382 159.58 146.894 159.232 145.656 158.536C144.419 157.801 143.472 156.931 142.814 155.926C142.196 154.921 141.848 153.973 141.77 153.084C141.77 152.311 141.983 151.518 142.408 150.706C142.834 149.894 143.336 149.217 143.916 148.676C144.496 148.135 144.941 147.864 145.25 147.864C145.444 147.864 145.54 147.98 145.54 148.212C145.734 150.339 146.314 152.291 147.28 154.07C148.247 155.81 149.987 156.68 152.5 156.68C154.511 156.68 156.116 156.061 157.314 154.824C158.513 153.587 159.112 151.866 159.112 149.662C159.112 148.347 158.861 147.129 158.358 146.008C157.856 144.887 157.024 143.63 155.864 142.238L150.18 135.51C149.562 134.698 149.078 133.867 148.73 133.016C148.382 132.127 148.208 131.063 148.208 129.826C148.208 127.815 148.672 125.921 149.6 124.142C150.528 122.363 151.882 120.933 153.66 119.85C155.439 118.729 157.508 118.168 159.866 118.168C161.8 118.168 163.385 118.574 164.622 119.386C165.86 120.159 166.478 121.281 166.478 122.75C166.478 123.871 166.014 125.167 165.086 126.636C164.738 127.216 164.352 127.506 163.926 127.506C163.617 127.506 163.404 127.371 163.288 127.1C163.211 126.791 163.134 126.249 163.056 125.476C162.94 122.383 161.278 120.836 158.068 120.836C156.135 120.836 154.627 121.339 153.544 122.344C152.462 123.311 151.92 124.645 151.92 126.346C151.92 128.047 152.636 129.768 154.066 131.508L159.634 137.946C162.032 140.769 163.23 143.727 163.23 146.82C163.23 149.063 162.592 151.17 161.316 153.142C160.079 155.075 158.436 156.641 156.386 157.84C154.376 159 152.288 159.58 150.122 159.58ZM190.871 159.58C189.054 159.58 187.933 158.265 187.507 155.636C187.159 153.509 186.985 149.701 186.985 144.21L185.535 145.312H178.459C177.57 147.593 176.526 149.643 175.327 151.46C174.167 153.277 172.93 154.631 171.615 155.52V155.636C172.118 155.868 172.601 155.984 173.065 155.984C173.645 155.984 174.187 155.887 174.689 155.694C175.231 155.501 175.559 155.404 175.675 155.404C175.946 155.404 176.081 155.501 176.081 155.694C176.081 155.965 175.811 156.429 175.269 157.086C174.651 157.705 173.993 158.188 173.297 158.536C172.601 158.845 171.944 159 171.325 159C170.823 159 170.107 158.845 169.179 158.536C168.251 158.227 167.555 158.072 167.091 158.072C166.511 158.072 165.931 158.227 165.351 158.536C164.733 158.845 164.327 159 164.133 159C163.94 159 163.843 158.903 163.843 158.71C163.843 158.323 163.998 157.879 164.307 157.376C164.617 156.835 164.984 156.467 165.409 156.274C165.641 156.158 165.873 156.081 166.105 156.042C166.299 156.003 166.55 155.926 166.859 155.81C168.367 155.23 169.682 154.186 170.803 152.678C171.963 151.131 172.949 149.411 173.761 147.516C174.573 145.583 175.501 143.127 176.545 140.15C177.744 136.786 178.769 134.06 179.619 131.972C180.509 129.845 181.553 127.893 182.751 126.114C183.95 124.297 185.323 122.885 186.869 121.88V121.822C186.328 121.745 185.922 121.667 185.651 121.59C185.497 121.551 185.013 121.474 184.201 121.358C183.428 121.242 182.423 121.184 181.185 121.184C179.097 121.184 177.338 121.571 175.907 122.344C174.515 123.117 173.201 124.374 171.963 126.114C171.577 126.733 171.267 127.042 171.035 127.042C170.803 127.042 170.687 126.887 170.687 126.578L170.745 125.998C171.325 123.639 172.64 121.745 174.689 120.314C176.777 118.883 179.194 118.168 181.939 118.168C183.061 118.168 184.743 118.361 186.985 118.748C189.073 119.135 190.562 119.328 191.451 119.328C192.457 119.328 193.52 119.135 194.641 118.748V118.806C193.597 120.546 192.785 123.272 192.205 126.984C191.625 130.657 191.335 135.22 191.335 140.672C191.335 146.279 191.451 150.068 191.683 152.04C191.761 153.161 191.915 154.012 192.147 154.592C192.418 155.133 192.863 155.404 193.481 155.404C193.868 155.404 194.235 155.307 194.583 155.114C194.97 154.921 195.473 154.631 196.091 154.244C196.826 153.741 197.29 153.49 197.483 153.49C197.715 153.49 197.831 153.567 197.831 153.722C197.831 154.031 197.715 154.399 197.483 154.824C196.749 156.139 195.743 157.26 194.467 158.188C193.23 159.116 192.031 159.58 190.871 159.58ZM187.043 141.832C187.121 138.275 187.372 134.756 187.797 131.276C188.223 127.757 188.764 124.896 189.421 122.692H189.363C187.855 123.388 186.386 125.07 184.955 127.738C183.563 130.406 181.959 134.447 180.141 139.86L179.503 141.832H187.043Z" fill="black"/>
<path d="M12.1941 97.4441C12.1447 97.3732 12.1588 97.2766 12.2268 97.2264L18.4799 92.5817L12.3276 94.2872L12.3058 94.2933L12.3038 94.2894C12.2352 94.3004 12.1639 94.2682 12.1362 94.2009C12.1022 94.1218 12.1373 94.0318 12.2173 93.9951C12.4837 93.8835 18.7579 91.2005 20.8254 90.2095C21.7651 89.7593 22.3674 89.2322 22.5269 88.7254C22.5969 88.5032 22.5776 88.2952 22.4713 88.105C21.1504 85.761 15.2078 86.5521 14.5324 86.649C14.5255 86.65 14.5226 86.6491 14.5196 86.6482C14.5058 86.6507 14.4969 86.6479 14.4872 86.6477C14.4744 86.647 14.4636 86.6501 14.4518 86.6464C14.3688 86.6203 14.325 86.5316 14.3502 86.4516C14.3642 86.4071 14.3952 86.381 14.4332 86.3637C14.4414 86.3594 14.4459 86.3546 14.4537 86.3503C16.4074 85.5876 20.317 84.5082 22.2503 84.1199C24.2109 83.7272 25.3948 84.3538 25.8595 86.0342C25.9912 86.5056 26.0832 86.9287 26.1321 87.1757C26.4977 86.9354 26.9699 86.5205 27.2433 86.2841L27.2888 86.243C28.1099 85.5177 28.8328 85.2078 29.4391 85.3204C29.8856 85.4023 30.1313 85.6978 30.2221 85.8339L30.9643 85.9697C31.0284 85.9834 31.0784 86.0317 31.0902 86.0976C31.1031 86.16 31.0728 86.2254 31.0173 86.2568L30.3431 86.6602C30.3178 86.9063 30.2099 87.6642 29.874 88.2751C30.3655 88.4005 31.5347 88.8046 31.8531 89.7904C31.9671 90.1423 31.958 90.5335 31.8256 90.9544C31.6296 91.577 31.1687 92.2655 30.4394 93.02C28.7493 94.778 26.2574 97.1892 24.3496 98.6868L24.3383 98.6927C24.3293 98.6996 24.322 98.7136 24.3108 98.7169C24.2333 98.7573 24.1411 98.7283 24.1004 98.6507C24.076 98.6039 24.0859 98.5517 24.1101 98.5072C24.1167 98.4962 24.1205 98.4844 24.129 98.477C24.1309 98.471 24.1326 98.4654 24.1368 98.4635C24.1378 98.4605 24.1387 98.4575 24.1427 98.4552C24.4585 98.0728 25.2639 97.0557 25.9092 95.8744C26.7062 94.4184 27.6148 92.8054 27.8998 92.3023C27.5833 92.1798 27.198 91.9967 26.7627 91.7652C26.0056 92.2045 24.2244 92.9892 22.3749 92.0456C21.8104 92.1937 18.1589 94.1813 12.5548 97.3951L12.3916 97.4903L12.3893 97.486C12.3232 97.5202 12.2432 97.5052 12.1941 97.4441ZM26.4375 91.5877C25.9343 91.312 25.5086 91.0511 25.3517 90.9495C25.1164 91.0452 24.8881 91.1392 24.6636 91.2314C24.0088 91.5009 23.3862 91.761 22.8505 91.9213C24.3225 92.5018 25.709 91.9773 26.4375 91.5877Z" fill="black"/>
<path d="M53.5787 77.4335L52.401 77.356C50.093 77.1895 48.2486 76.9504 46.9134 76.6545C45.6764 76.3804 45.2223 76.1276 45.082 76.0338C45.3923 75.0778 49.3193 73.3302 51.8081 72.4188C51.9203 72.3766 51.9786 72.2552 51.9373 72.1387C51.8993 72.0273 51.7779 71.9691 51.6623 72.0061C48.9328 72.9138 47.0116 73.6471 45.6078 74.1863C43.5397 74.9765 42.5954 75.3401 41.866 75.1784C41.6826 75.1378 41.5067 75.063 41.3129 74.9484C40.6321 74.547 40.4007 72.6027 40.6627 71.7837C40.967 70.8348 45.7761 70.3974 48.7417 70.3431C48.8541 70.3407 48.9451 70.2534 48.9516 70.143C48.9634 70.0293 48.8927 69.9241 48.7705 69.9104C48.7193 69.8991 43.2638 68.972 41.4003 68.6978C39.7719 68.4533 39.5374 68.5217 38.9754 68.7959C38.3037 69.1214 37.0157 69.8648 36.3533 70.2689C35.1989 70.9752 35.5926 72.4497 35.7792 73.1623C35.8225 73.3106 35.8538 73.4518 35.8837 73.5793C35.4665 73.281 35.0584 73.0831 34.666 72.9961C33.7574 72.7948 33.1898 73.2154 32.9697 73.4213L32.492 73.3154C32.4066 73.2965 32.3185 73.3307 32.2663 73.4046C32.2152 73.4738 32.2124 73.5671 32.2579 73.6444C32.2613 73.6496 32.6271 74.2403 32.916 74.8955L32.944 74.9509C33.4123 76.0079 33.8528 77.009 35.8762 78.5807C35.8105 79.0186 35.7058 80.4001 36.6738 81.9486C37.9607 83.9965 40.5452 85.4602 44.3586 86.3053C46.0733 86.6853 48.0572 86.9415 50.2514 87.0563C50.366 87.0638 50.4655 86.9785 50.4773 86.8647C50.49 86.7467 50.4108 86.6397 50.298 86.6236C50.2938 86.6227 50.0127 86.5783 49.5563 86.4771C48.6648 86.2796 46.7585 85.7945 45.044 84.9491C43.3285 84.108 41.7961 82.9048 41.6525 81.2709C41.6282 80.9567 41.6919 80.5278 41.7656 80.0742C41.8359 79.6155 41.9085 79.1263 41.9126 78.6435C42.6142 78.244 43.8137 77.597 44.7665 77.3159C46.8485 77.4322 50.5629 77.674 52.3671 77.7919C52.7453 77.822 53.1381 77.8464 53.5533 77.8713C53.6722 77.8798 53.7778 77.7868 53.7819 77.6674C53.7901 77.5479 53.7061 77.4443 53.5787 77.4335ZM35.1168 77.3612C35.229 77.1578 35.343 76.9057 35.414 76.626C35.635 76.9211 35.893 77.4128 35.9124 78.0522C35.6089 77.8059 35.3467 77.5777 35.1168 77.3612ZM41.8906 78.1553C41.8638 77.9529 41.8235 77.7511 41.7495 77.5602C42.5029 77.2702 43.0065 77.2391 43.4425 77.2507C43.5041 77.2554 43.5804 77.2544 43.6728 77.2614C43.0252 77.5386 42.3761 77.8825 41.8906 78.1553Z" fill="black"/>
</svg>
