<svg width="421" height="174" viewBox="0 0 421 174" fill="none" xmlns="http://www.w3.org/2000/svg">
<path d="M111.473 27.6514C107.904 43.2842 103.77 51.6953 100.314 54.6973H121.3L129.456 16.4082H114.135C113.795 17.8809 112.266 24.7061 111.473 27.6514ZM132.713 54.6973L130.9 65.1191H129.796C129.258 57.501 128.55 56 122.574 56H104.138C97.8223 56 96.8594 57.8691 93.1777 65.1191H92.0732L94.4805 54.6973H98.1904C102.297 51.8086 106.46 42.7178 109.943 27.5947C110.283 26.3486 110.963 23.6299 111.388 21.7324C112.266 17.8242 111.388 16.5781 107.621 16.0684L107.819 15.1055H139.396L139.198 16.0684C135.885 16.4648 135.177 16.9746 134.61 19.665L127.162 54.6973H132.713ZM141.605 56H133.449L133.647 55.0938C135.573 54.4424 137.159 53.1396 142.342 47.334L156.842 30.9932L150.696 22.1855C147.751 17.9941 146.108 16.6348 143.106 16.0684L143.305 15.1055H154.831L154.633 16.0684C150.81 16.4648 150.045 17.7959 152.367 21.4492L160.24 34.1367L163.525 34.165L166.612 19.665C167.207 16.9746 166.726 16.4648 163.327 16.0684L163.525 15.1055H177.516L177.317 16.0684C173.806 16.4648 173.069 16.9746 172.503 19.665L169.416 34.1367L172.814 34.1084L185.927 21.4492C189.552 17.9375 189.892 16.4932 186.012 16.0684L186.21 15.1055H197.481L197.283 16.0684C194.168 16.5781 191.902 18.0508 187.343 22.2139L177.034 31.5029L184.397 47.3623C187.145 53.1963 188.249 54.4141 189.948 55.0938L189.75 56H181.877L172.475 35.4678L169.133 35.4395L165.734 51.4404C165.168 54.1309 165.706 54.6406 169.048 55.0371L168.85 56H154.859L155.058 55.0371C158.626 54.6123 159.306 54.1309 159.872 51.4404L163.271 35.4395L159.985 35.4678L141.605 56ZM222.545 49.2881C223.14 53.8193 224.103 54.6689 226.538 55.0371L226.34 56H212.123L212.321 55.0371C215.975 54.584 216.824 53.2812 216.371 49.2598L215.437 41.3584H202.438L198.614 48.5518C196.009 53.4512 196.49 54.4707 200.342 55.0371L200.144 56H189.467L189.665 55.0371C192.582 54.6123 193.63 53.7627 196.604 48.4951L215.238 15.1055H218.099L222.545 49.2881ZM203.174 39.9707H215.267L213.029 21.3643L203.174 39.9707ZM261.315 43.4258C261.315 50.7607 254.009 56 240.981 56H227.756L227.954 55.0371C231.324 54.6406 231.947 54.0742 232.514 51.4404L239.282 19.665C239.849 17.0312 239.452 16.4648 236.224 16.0684L236.422 15.1055H248.968C258.285 15.1055 263.298 18.8154 263.241 24.2812C263.185 31.0498 255.991 33.5703 250.044 34.0801C257.209 34.5332 261.315 38.4414 261.315 43.4258ZM257.124 24.1963C257.124 19.4951 254.405 16.5215 248.798 16.3232L245.881 16.2383L242.143 33.7969L246.73 33.7686C253.442 33.7119 257.124 29.4355 257.124 24.1963ZM254.943 43.4824C254.943 38.668 251.941 35.0146 246.476 34.958L241.916 34.9014L237.696 54.8672L240.642 54.7822C250.61 54.4424 254.943 49.4863 254.943 43.4824ZM285.699 56.5381C275.334 56.5381 268.197 49.2598 268.169 38.2715C268.141 25.4707 277.09 14.5957 289.466 14.5957C299.803 14.5957 306.968 21.8457 306.968 32.834C306.968 45.6631 298.075 56.5381 285.699 56.5381ZM285.161 55.0938C293.884 55.0938 300.596 44.0488 300.596 30.7666C300.596 21.1943 296.376 16.04 289.976 16.04C280.687 16.04 274.541 28.3877 274.541 40.3672C274.541 49.9395 278.761 55.0938 285.161 55.0938ZM313.906 48.5234L324.215 35.8643L318.522 21.0527C317.135 17.3711 316.257 16.6064 313.736 16.0684L313.935 15.1055H328.01L327.812 16.0684C324.13 16.6348 323.705 17.6543 324.923 20.7979L329.766 33.457L338.29 22.2705C341.802 17.5977 341.745 16.6631 337.865 16.0684L338.063 15.1055H348.854L348.655 16.0684C345.767 16.4648 344.407 17.2861 340.188 22.4404L330.219 34.5898L336.138 50.0527C337.554 53.7344 338.517 54.4141 340.782 55.0371L340.584 56H326.65L326.849 55.0371C330.615 54.3857 330.87 53.1963 329.737 50.3076L324.64 36.9971L315.69 48.835C312.207 53.5078 312.235 54.4424 316.115 55.0371L315.917 56H305.127L305.325 55.0371C308.214 54.6406 309.602 53.8477 313.906 48.5234ZM342 56L342.198 55.0371C345.568 54.6406 346.191 54.1309 346.758 51.4404L353.526 19.665C354.093 17.0029 353.64 16.4648 350.468 16.0684L350.666 15.1055H364.146L363.948 16.0684C360.663 16.4648 359.955 16.9746 359.389 19.665L353.385 48.0137L378.901 20.9111L379.156 19.665C379.723 16.9746 379.298 16.4648 376.126 16.0684L376.324 15.1055H389.805L389.606 16.0684C386.321 16.4648 385.613 16.9746 385.047 19.665L378.278 51.4404C377.712 54.1025 378.222 54.6689 381.337 55.0371L381.139 56H367.658L367.856 55.0371C371.227 54.6406 371.85 54.1309 372.416 51.4404L378.392 23.2334L352.875 50.3643L352.648 51.4404C352.082 54.1025 352.592 54.6689 355.679 55.0371L355.48 56H342ZM398.442 56H384.197L384.396 55.0371C387.794 54.6406 388.445 54.0176 389.04 51.3838L395.78 19.7217C396.347 17.0879 395.922 16.4648 392.693 16.0684L392.892 15.1055H405.607C415.576 15.1055 420.277 19.9199 420.277 26.2354C420.277 35.4961 410.762 39.291 400.906 39.291H397.479L394.902 51.3838C394.393 53.8477 394.846 54.6689 398.641 55.0371L398.442 56ZM402.379 16.2383L397.706 38.1582L400.623 38.0732C409.261 37.79 414.188 33.0322 414.188 25.8389C414.188 20.4014 411.187 16.5498 405.069 16.3232L402.379 16.2383Z" fill="black"/>
<path d="M177.207 92.5156C177.207 89.6309 179.395 87.5527 182.758 86.3223C181.486 84.5039 180.953 83.082 180.98 81.7285C181.021 79.1855 182.949 76.9707 186.162 76.9707C189.238 76.9707 190.906 78.6797 190.906 80.7852C190.906 82.6172 189.402 84.2988 185.711 85.7207C185.848 85.8848 185.998 86.0762 186.148 86.2539L190.141 91.1211L192.123 88.209C193.572 86.0762 193.312 85.4883 191.412 85.2969L191.508 84.8184H196.717L196.621 85.2969C195.172 85.5156 194.516 86.0078 192.793 88.3594L190.469 91.5176L192.096 93.5C193.34 95.0039 194.434 96.0977 195.568 96.5898L195.473 97H191.453L188.732 93.6914C186.75 95.9336 184.822 97.2871 182.525 97.2871C179.299 97.2871 177.207 95.1816 177.207 92.5156ZM183.387 80.6348C183.387 81.9609 183.893 83.3145 185.438 85.3652C187.529 84.3125 188.705 82.7129 188.705 80.7988C188.705 79.1172 187.844 77.627 186.162 77.627C184.494 77.627 183.387 78.7207 183.387 80.6348ZM179.723 91.3398C179.723 93.9375 181.609 95.7559 183.961 95.7559C185.711 95.7559 187.051 94.8398 188.432 93.3223L183.961 87.8945C183.633 87.4844 183.318 87.1016 183.059 86.7324C181.568 87.4844 179.723 88.8105 179.723 91.3398Z" fill="black"/>
<path d="M23.4727 160H21.377L15.3447 123.495L8.85938 152.863C7.83984 157.423 8.12305 158.471 11.8047 159.037L11.6064 160H1.21289L1.41113 159.037C4.92285 158.442 5.77246 157.395 6.90527 152.863L13.7871 124.741C14.5801 121.598 14.0137 120.521 11.125 120.068L11.3232 119.105H20.7539L26.1064 153.09L44.7129 119.105H54.7666L54.5684 120.068C51.2549 120.55 50.6035 121.173 50.1504 123.58L44.2881 155.525C43.835 158.074 44.2031 158.584 47.4316 159.037L47.2334 160H33.7246L33.9229 159.037C37.3496 158.584 38.0293 158.046 38.4824 155.525L44.3164 123.523L27.126 153.543L23.4727 160ZM54.8799 157.083C54.8799 155.101 56.4941 153.515 58.4766 153.515C60.4307 153.515 61.9316 155.016 61.9316 156.941C61.9316 157.706 61.6768 158.386 61.2803 158.924C63.9707 157.904 66.4346 155.327 69.125 151.617L61.7334 124.373C60.8838 121.145 60.0625 120.578 56.9756 120.068L57.1738 119.105H72.5801L72.3818 120.068C67.5674 120.521 67.5107 121.003 68.4736 124.798L73.543 145.528L86.5986 125.478C89.1191 121.598 89.3174 120.437 85.1543 120.068L85.3525 119.105H96.1992L96.001 120.068C92.6875 120.578 91.3564 121.683 88.5527 125.761L73.543 147.596C66.8877 157.253 63.4893 160.651 58.7314 160.651C56.4092 160.651 54.8799 159.065 54.8799 157.083ZM99.541 155.44C98.9746 158.074 99.4561 158.669 102.543 159.037L102.345 160H88.8359L89.0342 159.037C92.4326 158.641 93.084 158.018 93.6787 155.384L100.419 123.722C100.985 121.088 100.561 120.465 97.332 120.068L97.5303 119.105H111.011L110.812 120.068C107.584 120.437 106.848 121.031 106.281 123.665L103.138 138.42H122.537L125.681 123.665C126.247 121.031 125.822 120.437 122.679 120.068L122.877 119.105H136.386L136.188 120.068C132.817 120.465 132.109 121.088 131.543 123.722L124.803 155.384C124.236 158.018 124.689 158.641 127.89 159.037L127.691 160H114.211L114.409 159.037C117.694 158.669 118.374 158.074 118.912 155.44L122.254 139.694H102.883L99.541 155.44ZM130.75 160L130.948 159.037C134.318 158.641 134.941 158.131 135.508 155.44L142.276 123.665C142.843 121.003 142.39 120.465 139.218 120.068L139.416 119.105H152.896L152.698 120.068C149.413 120.465 148.705 120.975 148.139 123.665L142.135 152.014L167.651 124.911L167.906 123.665C168.473 120.975 168.048 120.465 164.876 120.068L165.074 119.105H178.555L178.356 120.068C175.071 120.465 174.363 120.975 173.797 123.665L167.028 155.44C166.462 158.103 166.972 158.669 170.087 159.037L169.889 160H156.408L156.606 159.037C159.977 158.641 160.6 158.131 161.166 155.44L167.142 127.233L141.625 154.364L141.398 155.44C140.832 158.103 141.342 158.669 144.429 159.037L144.23 160H130.75ZM196.396 159.15C201.976 159.15 206.422 155.072 208.971 148.53L209.82 148.502L207.951 157.593C205.289 159.462 201.069 160.595 196.057 160.595C186.598 160.595 178.385 153.968 178.441 141.592C178.526 127.743 187.646 118.511 200.333 118.511C206.45 118.511 211.548 120.465 214.097 122.504L212.397 131.51L211.548 131.453C211.35 123.184 207.498 119.955 201.438 119.955C191.667 119.955 184.898 129.867 184.898 143.121C184.898 152.127 189.6 159.15 196.396 159.15ZM242.955 153.288C243.55 157.819 244.513 158.669 246.948 159.037L246.75 160H232.533L232.731 159.037C236.385 158.584 237.234 157.281 236.781 153.26L235.847 145.358H222.848L219.024 152.552C216.419 157.451 216.9 158.471 220.752 159.037L220.554 160H209.877L210.075 159.037C212.992 158.612 214.04 157.763 217.014 152.495L235.648 119.105H238.509L242.955 153.288ZM223.584 143.971H235.677L233.439 125.364L223.584 143.971Z" fill="black"/>
<path d="M72.1941 97.4441C72.1447 97.3732 72.1588 97.2766 72.2268 97.2264L78.4799 92.5817L72.3276 94.2872L72.3058 94.2933L72.3038 94.2894C72.2352 94.3004 72.1639 94.2682 72.1362 94.2009C72.1022 94.1218 72.1373 94.0318 72.2173 93.9951C72.4837 93.8835 78.7579 91.2005 80.8254 90.2095C81.7651 89.7593 82.3674 89.2322 82.5269 88.7254C82.5969 88.5032 82.5776 88.2952 82.4713 88.105C81.1504 85.761 75.2078 86.5521 74.5324 86.649C74.5255 86.65 74.5226 86.6491 74.5196 86.6482C74.5058 86.6507 74.4969 86.6479 74.4872 86.6477C74.4744 86.647 74.4636 86.6501 74.4518 86.6464C74.3688 86.6203 74.325 86.5316 74.3502 86.4516C74.3642 86.4071 74.3952 86.381 74.4332 86.3637C74.4414 86.3594 74.4459 86.3546 74.4537 86.3503C76.4074 85.5876 80.317 84.5082 82.2503 84.1199C84.2109 83.7272 85.3948 84.3538 85.8595 86.0342C85.9912 86.5056 86.0832 86.9287 86.1321 87.1757C86.4977 86.9354 86.9699 86.5205 87.2433 86.2841L87.2888 86.243C88.1099 85.5177 88.8328 85.2078 89.4391 85.3204C89.8856 85.4023 90.1313 85.6978 90.2221 85.8339L90.9643 85.9697C91.0284 85.9834 91.0784 86.0317 91.0902 86.0976C91.1031 86.16 91.0728 86.2254 91.0173 86.2568L90.3431 86.6602C90.3178 86.9063 90.2099 87.6642 89.874 88.2751C90.3655 88.4005 91.5347 88.8046 91.8531 89.7904C91.9671 90.1423 91.958 90.5335 91.8256 90.9544C91.6296 91.577 91.1687 92.2655 90.4394 93.02C88.7493 94.778 86.2574 97.1892 84.3496 98.6868L84.3383 98.6927C84.3293 98.6996 84.322 98.7136 84.3108 98.7169C84.2333 98.7573 84.1411 98.7283 84.1004 98.6507C84.076 98.6039 84.0859 98.5517 84.1101 98.5072C84.1167 98.4962 84.1205 98.4844 84.129 98.477C84.1309 98.471 84.1326 98.4654 84.1368 98.4635C84.1378 98.4605 84.1387 98.4575 84.1427 98.4552C84.4585 98.0728 85.2639 97.0557 85.9092 95.8744C86.7062 94.4184 87.6148 92.8054 87.8998 92.3023C87.5833 92.1798 87.198 91.9967 86.7627 91.7652C86.0056 92.2045 84.2244 92.9892 82.3749 92.0456C81.8104 92.1937 78.1589 94.1813 72.5548 97.3951L72.3916 97.4903L72.3893 97.486C72.3232 97.5202 72.2432 97.5052 72.1941 97.4441ZM86.4375 91.5877C85.9343 91.312 85.5086 91.0511 85.3517 90.9495C85.1164 91.0452 84.8881 91.1392 84.6636 91.2314C84.0088 91.5009 83.3862 91.761 82.8505 91.9213C84.3225 92.5018 85.709 91.9773 86.4375 91.5877Z" fill="black"/>
<path d="M113.579 77.4335L112.401 77.356C110.093 77.1895 108.249 76.9504 106.913 76.6545C105.676 76.3804 105.222 76.1276 105.082 76.0338C105.392 75.0778 109.319 73.3302 111.808 72.4188C111.92 72.3766 111.979 72.2552 111.937 72.1387C111.899 72.0273 111.778 71.9691 111.662 72.0061C108.933 72.9138 107.012 73.6471 105.608 74.1863C103.54 74.9765 102.595 75.3401 101.866 75.1784C101.683 75.1378 101.507 75.063 101.313 74.9484C100.632 74.547 100.401 72.6027 100.663 71.7837C100.967 70.8348 105.776 70.3974 108.742 70.3431C108.854 70.3407 108.945 70.2534 108.952 70.143C108.963 70.0293 108.893 69.9241 108.77 69.9104C108.719 69.8991 103.264 68.972 101.4 68.6978C99.7719 68.4533 99.5374 68.5217 98.9754 68.7959C98.3037 69.1214 97.0157 69.8648 96.3533 70.2689C95.1989 70.9752 95.5926 72.4497 95.7792 73.1623C95.8225 73.3106 95.8538 73.4518 95.8837 73.5793C95.4665 73.281 95.0584 73.0831 94.666 72.9961C93.7574 72.7948 93.1898 73.2154 92.9697 73.4213L92.492 73.3154C92.4066 73.2965 92.3185 73.3307 92.2663 73.4046C92.2152 73.4738 92.2124 73.5671 92.2579 73.6444C92.2613 73.6496 92.6271 74.2403 92.916 74.8955L92.944 74.9509C93.4123 76.0079 93.8528 77.009 95.8762 78.5807C95.8105 79.0186 95.7058 80.4001 96.6738 81.9486C97.9607 83.9965 100.545 85.4602 104.359 86.3053C106.073 86.6853 108.057 86.9415 110.251 87.0563C110.366 87.0638 110.466 86.9785 110.477 86.8647C110.49 86.7467 110.411 86.6397 110.298 86.6236C110.294 86.6227 110.013 86.5783 109.556 86.4771C108.665 86.2796 106.759 85.7945 105.044 84.9491C103.328 84.108 101.796 82.9048 101.653 81.2709C101.628 80.9567 101.692 80.5278 101.766 80.0742C101.836 79.6155 101.909 79.1263 101.913 78.6435C102.614 78.244 103.814 77.597 104.767 77.3159C106.848 77.4322 110.563 77.674 112.367 77.7919C112.745 77.822 113.138 77.8464 113.553 77.8713C113.672 77.8798 113.778 77.7868 113.782 77.6674C113.79 77.5479 113.706 77.4443 113.579 77.4335ZM95.1168 77.3612C95.229 77.1578 95.343 76.9057 95.414 76.626C95.635 76.9211 95.893 77.4128 95.9124 78.0522C95.6089 77.8059 95.3467 77.5777 95.1168 77.3612ZM101.891 78.1553C101.864 77.9529 101.824 77.7511 101.749 77.5602C102.503 77.2702 103.007 77.2391 103.442 77.2507C103.504 77.2554 103.58 77.2544 103.673 77.2614C103.025 77.5386 102.376 77.8825 101.891 78.1553Z" fill="black"/>
</svg>
